<svg id="visual" viewBox="0 0 900 450" width="900" height="450" xmlns="http://www.w3.org/2000/svg" xmlns:xlink="http://www.w3.org/1999/xlink" version="1.1"><rect x="0" y="0" width="900" height="450" fill="#700c32"></rect><g transform="translate(793.8566109617067 486.45806927843796)"><path d="M351.1 -492.5C458 -546.5 549.4 -458.3 638.3 -352.5C727.2 -246.7 813.6 -123.3 777.1 -21.1C740.6 81.2 581.2 162.3 439.1 176C297 189.8 172.3 136 102 95.4C31.7 54.9 15.8 27.4 -42.7 101.3C-101.2 175.2 -202.3 350.5 -306.5 410.6C-410.8 470.8 -518 415.9 -542.9 328.3C-567.8 240.7 -510.4 120.3 -521.7 -6.5C-532.9 -133.3 -612.9 -266.7 -548.7 -286.3C-484.5 -305.9 -276.3 -211.9 -160.8 -152.9C-45.3 -93.9 -22.7 -69.9 49.7 -156.1C122.2 -242.3 244.3 -438.5 351.1 -492.5" fill="#151515"></path></g></svg>