<svg id="visual" viewBox="0 0 900 450" width="900" height="450" xmlns="http://www.w3.org/2000/svg" xmlns:xlink="http://www.w3.org/1999/xlink" version="1.1"><rect x="0" y="0" width="900" height="450" fill="#09090B"></rect><path d="M0 237L18.8 231.3C37.7 225.7 75.3 214.3 112.8 214.3C150.3 214.3 187.7 225.7 225.2 228C262.7 230.3 300.3 223.7 337.8 216.7C375.3 209.7 412.7 202.3 450.2 199.7C487.7 197 525.3 199 562.8 201.7C600.3 204.3 637.7 207.7 675.2 207C712.7 206.3 750.3 201.7 787.8 202.8C825.3 204 862.7 211 881.3 214.5L900 218L900 0L881.3 0C862.7 0 825.3 0 787.8 0C750.3 0 712.7 0 675.2 0C637.7 0 600.3 0 562.8 0C525.3 0 487.7 0 450.2 0C412.7 0 375.3 0 337.8 0C300.3 0 262.7 0 225.2 0C187.7 0 150.3 0 112.8 0C75.3 0 37.7 0 18.8 0L0 0Z" fill="#151515"></path><path d="M0 130L18.8 136.7C37.7 143.3 75.3 156.7 112.8 157.5C150.3 158.3 187.7 146.7 225.2 141.2C262.7 135.7 300.3 136.3 337.8 135.3C375.3 134.3 412.7 131.7 450.2 134C487.7 136.3 525.3 143.7 562.8 150.3C600.3 157 637.7 163 675.2 164.5C712.7 166 750.3 163 787.8 160.3C825.3 157.7 862.7 155.3 881.3 154.2L900 153L900 0L881.3 0C862.7 0 825.3 0 787.8 0C750.3 0 712.7 0 675.2 0C637.7 0 600.3 0 562.8 0C525.3 0 487.7 0 450.2 0C412.7 0 375.3 0 337.8 0C300.3 0 262.7 0 225.2 0C187.7 0 150.3 0 112.8 0C75.3 0 37.7 0 18.8 0L0 0Z" fill="#421823"></path><path d="M0 90L18.8 87C37.7 84 75.3 78 112.8 75.7C150.3 73.3 187.7 74.7 225.2 75C262.7 75.3 300.3 74.7 337.8 71.5C375.3 68.3 412.7 62.7 450.2 63.8C487.7 65 525.3 73 562.8 77C600.3 81 637.7 81 675.2 80C712.7 79 750.3 77 787.8 74C825.3 71 862.7 67 881.3 65L900 63L900 0L881.3 0C862.7 0 825.3 0 787.8 0C750.3 0 712.7 0 675.2 0C637.7 0 600.3 0 562.8 0C525.3 0 487.7 0 450.2 0C412.7 0 375.3 0 337.8 0C300.3 0 262.7 0 225.2 0C187.7 0 150.3 0 112.8 0C75.3 0 37.7 0 18.8 0L0 0Z" fill="#700c32"></path></svg>